<svg width="10" height="10" viewBox="0 0 10 10" fill="none" xmlns="http://www.w3.org/2000/svg">
<path opacity="0.64" d="M1.63932 9.73698C1.89467 9.73411 2.1132 9.64183 2.29491 9.46012L7.88243 3.8726L7.84359 7.33403C7.84551 7.5846 7.93291 7.80112 8.10581 7.98358C8.28827 8.15647 8.50244 8.24154 8.74834 8.23878C9.00369 8.23591 9.22222 8.14363 9.40392 7.96192C9.58563 7.78021 9.67553 7.56407 9.67361 7.3135L9.72978 1.67457C9.73467 1.66033 9.73717 1.64848 9.73727 1.63902C9.74482 1.38835 9.65975 1.17417 9.48207 0.996495C9.3044 0.818819 9.08788 0.731414 8.83253 0.734279L3.15805 0.797943C2.91216 0.800702 2.69602 0.890597 2.50963 1.06763C2.3326 1.25401 2.24032 1.47254 2.23278 1.72322C2.23469 1.97379 2.3221 2.1903 2.49499 2.37276C2.67745 2.54565 2.89163 2.63072 3.13752 2.62796L6.59895 2.58913L1.01143 8.17665C0.834402 8.36303 0.742115 8.58156 0.734575 8.83224C0.736492 9.08281 0.823897 9.29932 0.996791 9.48178C1.17925 9.65467 1.39342 9.73974 1.63932 9.73698Z" fill="white"/>
</svg>
