<svg width="30" height="24" viewBox="0 0 30 24" fill="none" xmlns="http://www.w3.org/2000/svg">
<path fill-rule="evenodd" clip-rule="evenodd"
 d="M3.00114 0H27.0011C28.4678 0 29.6678 1.2 29.6678 
 2.66667V21.3333C29.6678 22.8 28.4678 24 27.0011 24H17.6678V21.3333H27.0011V2.66667H3.00114V6.66667H0.334473V2.66667C0.334473 1.2 1.53447
  0 3.00114 0ZM0.334473 24V20C2.54781 20 4.33447 21.7867 4.33447 24H0.334473ZM0.334473 14.6666V17.3333C4.01447
   17.3333 7.00114 20.3199 7.00114 23.9999H9.66781C9.66781 18.8399 5.49447
    14.6666 0.334473 14.6666ZM0.334473 12.0001V9.33339C8.42781 9.33339
     15.0011 15.8934 15.0011 24.0001H12.3345C12.3345 17.3734 6.96114 12.0001
      0.334473 12.0001ZM13.6688 10.7867V13.4534L18.3355 16.0001L23.0022
       13.4534V10.7867L18.3355 13.3334L13.6688 10.7867ZM11.0001 8L18.3334
        4L25.6668 8L18.3334 12L11.0001 8Z" fill="rgba(255, 255, 255, 0.5)"/>
</svg>
