<svg width="22" height="22" viewBox="0 0 22 22" fill="none" xmlns="http://www.w3.org/2000/svg">
<path fill-rule="evenodd" clip-rule="evenodd" d="M12.4144 13.8285L9.58594 16.657C8.41922 17.8237 6.51003 17.8237 5.3433 16.657C4.17658 15.4902 4.17658 13.5811 5.3433 12.4143L8.17173 9.5859L6.75752 8.17168L3.92909 11.0001C1.97747 12.9517 1.97747 16.1196 3.92909 18.0712C5.8807 20.0228 9.04854 20.0228 11.0002 18.0712L13.8286 15.2428L12.4144 13.8285ZM11.0002 3.92904L8.17173 6.75747L9.58594 8.17168L12.4144 5.34326C13.5811 4.17653 15.4903 4.17653 16.657 5.34326C17.8237 6.50998 17.8237 8.41917 16.657 9.5859L13.8286 12.4143L15.2428 13.8285L18.0712 11.0001C20.0228 9.0485 20.0228 5.88066 18.0712 3.92904C16.1196 1.97743 12.9518 1.97743 11.0002 3.92904ZM13.1215 7.46458L7.46462 13.1214L8.87884 14.5356L14.5357 8.87879L13.1215 7.46458Z" fill="#54688F" fill-opacity="0.64"/>
</svg>
