<svg width="63" height="52" viewBox="0 0 63 52" fill="none" xmlns="http://www.w3.org/2000/svg">
<path fill-rule="evenodd" clip-rule="evenodd" d="M54.0962 16.2554L53 17.2126L51.9038 16.2554C47.9884 12.8366 46 9.81121 46 7C46 3.02141 49.1035 0 53 0C56.8965 0 60 3.02141 60 7C60 9.81121 58.0116 12.8366 54.0962 16.2554ZM46.6855 12.8034C47.0961 13.3656 47.5535 13.9373 48.0575 14.519C46.1953 14.9384 45 15.5337 45 16C45 16.807 48.5791 18 53 18C57.4209 18 61 16.807 61 16C61 15.5337 59.8047 14.9384 57.9425 14.519C58.4465 13.9373 58.9039 13.3656 59.3144 12.8034C61.5633 13.4858 63 14.5804 63 16C63 18.5068 58.5203 20 53 20C47.4797 20 43 18.5068 43 16C43 14.5804 44.4367 13.4858 46.6855 12.8034ZM53 2C55.8038 2 58 4.13816 58 7C58 9.04696 56.3727 11.5659 53 14.556C49.6273 11.5659 48 9.04696 48 7C48 4.13816 50.1962 2 53 2ZM53 4C54.6569 4 56 5.34315 56 7C56 8.65685 54.6569 10 53 10C51.3432 10 50 8.65685 50 7C50 5.34315 51.3432 4 53 4ZM52 7C52 6.44772 52.4477 6 53 6C53.5523 6 54 6.44772 54 7C54 7.55228 53.5523 8 53 8C52.4477 8 52 7.55228 52 7Z" fill="#54688F"/>
<g clip-path="url(#clip0)">
<path fill-rule="evenodd" clip-rule="evenodd" d="M12.0126 10.4856C11.3357 9.80803 10.7763 9.07587 10.4794 8.48272C10.382 8.28796 10.3214 8.12458 10.2947 8.00779L10.8951 7.40702C11.0268 7.27519 11.0902 7.21101 11.172 7.125C11.3454 6.94279 11.4899 6.77628 11.6171 6.60491C12.1892 5.83399 12.4018 4.99475 11.7246 4.23904C10.4424 2.44548 9.57981 1.33615 9.02679 0.789877C7.88571 -0.337274 6.02665 -0.186275 5.03706 0.788765C4.55922 1.25957 4.3968 1.42191 3.90615 1.92025C1.04071 4.78708 2.74966 10.7138 7.26507 15.2335C11.7797 19.7523 17.7069 21.4624 20.58 18.5879C21.031 18.1532 21.4164 17.7676 21.7213 17.4453C22.6868 16.4249 22.8325 14.6459 21.714 13.4838C21.1821 12.9311 20.1243 12.1103 18.2535 10.7718C17.5691 10.1652 16.7687 10.2968 16.0576 10.7633C15.7373 10.9734 15.5119 11.1789 15.0876 11.6037L14.4878 12.2038C14.3711 12.1772 14.208 12.1166 14.0135 12.0192C13.4206 11.7223 12.6891 11.1627 12.0126 10.4856ZM16.11 14.1156L16.855 13.3702C16.9822 13.2429 17.0829 13.1446 17.1661 13.0675C18.6745 14.1549 19.5573 14.8464 19.9138 15.2168C20.035 15.3428 20.0126 15.6153 19.9064 15.7276C19.6307 16.019 19.2711 16.3788 18.8291 16.8051C17.1982 18.4366 12.7013 17.1392 9.03264 13.4671C5.3626 9.79363 4.06559 5.2955 5.67995 3.68032C6.16806 3.18461 6.32158 3.03118 6.79066 2.569C6.86514 2.49562 7.1725 2.47065 7.27093 2.56789C7.65598 2.94823 8.37695 3.86714 9.43076 5.32866C9.40913 5.35222 9.3862 5.37673 9.36194 5.40222C9.29857 5.46882 9.24517 5.52295 9.12758 5.64065L8.38305 6.38556C6.94954 7.81889 8.0871 10.092 10.2451 12.252C12.4018 14.4107 14.6765 15.5498 16.11 14.1156Z" fill="#54688F"/>
</g>
<path fill-rule="evenodd" clip-rule="evenodd" d="M8 42C5.79086 42 4 43.7909 4 46C4 48.2091 5.79086 50 8 50C10.2091 50 12 48.2091 12 46C12 43.7909 10.2091 42 8 42ZM2 46C2 42.6863 4.68629 40 8 40C10.4423 40 12.5438 41.4593 13.4802 43.5535C14.2467 43.1983 15.1008 43 16 43C16.8992 43 17.7533 43.1983 18.5198 43.5535C19.4562 41.4593 21.5577 40 24 40C27.3137 40 30 42.6863 30 46C30 49.3137 27.3137 52 24 52C20.6863 52 18 49.3137 18 46C18 45.8469 18.0057 45.6951 18.017 45.5448C17.4252 45.1984 16.7367 45 16 45C15.2633 45 14.5748 45.1984 13.983 45.5448C13.9943 45.6951 14 45.8469 14 46C14 49.3137 11.3137 52 8 52C4.68629 52 2 49.3137 2 46ZM24 42C21.7909 42 20 43.7909 20 46C20 48.2091 21.7909 50 24 50C26.2091 50 28 48.2091 28 46C28 43.7909 26.2091 42 24 42Z" fill="#54688F"/>
<defs>
<clipPath id="clip0">
<rect width="23" height="20" fill="white"/>
</clipPath>
</defs>
</svg>
