<svg width="32" height="32" viewBox="0 0 32 32" fill="none" xmlns="http://www.w3.org/2000/svg">
<path opacity="0.64" fill-rule="evenodd" clip-rule="evenodd" d="M16 0C7.16344 0 0 7.16344 0 16C0 24.8366 7.16344 32 16 32C24.8366 32 32 24.8366 32 16C32 7.16344 24.8366 0 16 0ZM12.4822 7.51821C13.3925 7.47679 13.6833 7.46665 16.0009 7.46665H15.9982C18.3164 7.46665 18.6062 7.47679 19.5164 7.51821C20.4249 7.55981 21.0454 7.70363 21.5894 7.91466C22.1511 8.13244 22.6258 8.424 23.1005 8.89867C23.5752 9.37298 23.8667 9.84908 24.0854 10.4103C24.2952 10.9529 24.4392 11.573 24.4818 12.4815C24.5227 13.3917 24.5334 13.6825 24.5334 16.0001C24.5334 18.3176 24.5227 18.6077 24.4818 19.518C24.4392 20.4261 24.2952 21.0464 24.0854 21.5891C23.8667 22.1502 23.5752 22.6263 23.1005 23.1006C22.6263 23.5753 22.151 23.8675 21.5899 24.0855C21.047 24.2965 20.4261 24.4403 19.5177 24.4819C18.6075 24.5234 18.3175 24.5335 15.9998 24.5335C13.6824 24.5335 13.3918 24.5234 12.4815 24.4819C11.5733 24.4403 10.953 24.2965 10.41 24.0855C9.84915 23.8675 9.37305 23.5753 8.89892 23.1006C8.42442 22.6263 8.13286 22.1502 7.91473 21.5889C7.70388 21.0463 7.56006 20.4263 7.51828 19.5178C7.47703 18.6076 7.46672 18.3176 7.46672 16.0001C7.46672 13.6825 7.47739 13.3915 7.5181 12.4813C7.55899 11.5732 7.70299 10.9529 7.91455 10.4101C8.13322 9.84908 8.42478 9.37298 8.89945 8.89867C9.37377 8.42417 9.84986 8.13262 10.4111 7.91466C10.9537 7.70363 11.5738 7.55981 12.4822 7.51821Z" fill="#54688F"/>
<path opacity="0.64" fill-rule="evenodd" clip-rule="evenodd" d="M15.2355 9.00457C15.3841 9.00434 15.544 9.00441 15.7166 9.00449L16.001 9.00457C18.2794 9.00457 18.5495 9.01275 19.4492 9.05364C20.2812 9.09169 20.7328 9.23071 21.0336 9.34751C21.4318 9.50218 21.7157 9.68707 22.0142 9.98574C22.3129 10.2844 22.4978 10.5689 22.6528 10.9671C22.7696 11.2675 22.9088 11.7191 22.9467 12.5511C22.9876 13.4507 22.9964 13.7209 22.9964 15.9982C22.9964 18.2756 22.9876 18.5458 22.9467 19.4454C22.9086 20.2774 22.7696 20.729 22.6528 21.0294C22.4981 21.4276 22.3129 21.7112 22.0142 22.0097C21.7155 22.3084 21.432 22.4932 21.0336 22.6479C20.7331 22.7653 20.2812 22.9039 19.4492 22.942C18.5496 22.9829 18.2794 22.9917 16.001 22.9917C13.7224 22.9917 13.4524 22.9829 12.5528 22.942C11.7208 22.9036 11.2692 22.7645 10.9682 22.6477C10.57 22.4931 10.2856 22.3082 9.98689 22.0095C9.68822 21.7108 9.50333 21.4271 9.34831 21.0287C9.23151 20.7283 9.09231 20.2767 9.05444 19.4447C9.01355 18.5451 9.00537 18.2749 9.00537 15.9961C9.00537 13.7173 9.01355 13.4485 9.05444 12.549C9.09248 11.717 9.23151 11.2654 9.34831 10.9646C9.50298 10.5664 9.68822 10.2819 9.98689 9.98325C10.2856 9.68458 10.57 9.49969 10.9682 9.34467C11.269 9.22733 11.7208 9.08866 12.5528 9.05044C13.34 9.01489 13.6451 9.00422 15.2355 9.00244V9.00457ZM20.5561 10.4215C19.9907 10.4215 19.5321 10.8796 19.5321 11.4451C19.5321 12.0105 19.9907 12.4691 20.5561 12.4691C21.1214 12.4691 21.5801 12.0105 21.5801 11.4451C21.5801 10.8798 21.1214 10.4211 20.5561 10.4211V10.4215ZM11.6188 16.0002C11.6188 13.5802 13.5808 11.618 16.0009 11.6179C18.421 11.6179 20.3826 13.5801 20.3826 16.0002C20.3826 18.4203 18.4212 20.3816 16.001 20.3816C13.5809 20.3816 11.6188 18.4203 11.6188 16.0002Z" fill="#54688F"/>
<path opacity="0.64" d="M16.0007 13.1555C17.5716 13.1555 18.8452 14.429 18.8452 16C18.8452 17.5709 17.5716 18.8445 16.0007 18.8445C14.4297 18.8445 13.1562 17.5709 13.1562 16C13.1562 14.429 14.4297 13.1555 16.0007 13.1555Z" fill="#54688F"/>
</svg>
