<svg width="15" height="10" viewBox="0 0 15 10" fill="none" xmlns="http://www.w3.org/2000/svg">
<path d="M5.9375 3.59375C6.33333 3.19792 6.80208 3 7.34375 3C7.88542 3 8.35417 3.19792 8.75 3.59375C9.14583 3.98958 9.34375 4.45833 9.34375 5C9.34375 5.54167 9.14583 6.01042 8.75 6.40625C8.35417 6.80208 7.88542 7 7.34375 7C6.80208 7 6.33333 6.80208 5.9375 6.40625C5.54167 6.01042 5.34375 5.54167 5.34375 5C5.34375 4.45833 5.54167 3.98958 5.9375 3.59375ZM4.96875 7.375C5.63542 8.02083 6.42708 8.34375 7.34375 8.34375C8.26042 8.34375 9.04167 8.02083 9.6875 7.375C10.3542 6.70833 10.6875 5.91667 10.6875 5C10.6875 4.08333 10.3542 3.30208 9.6875 2.65625C9.04167 1.98958 8.26042 1.65625 7.34375 1.65625C6.42708 1.65625 5.63542 1.98958 4.96875 2.65625C4.32292 3.30208 4 4.08333 4 5C4 5.91667 4.32292 6.70833 4.96875 7.375ZM2.875 1.375C4.20833 0.458333 5.69792 0 7.34375 0C8.98958 0 10.4792 0.458333 11.8125 1.375C13.1458 2.29167 14.1042 3.5 14.6875 5C14.1042 6.5 13.1458 7.70833 11.8125 8.625C10.4792 9.54167 8.98958 10 7.34375 10C5.69792 10 4.20833 9.54167 2.875 8.625C1.54167 7.70833 0.583333 6.5 0 5C0.583333 3.5 1.54167 2.29167 2.875 1.375Z" fill="#54688F" fill-opacity="0.64"/>
</svg>
