<svg width="28" height="12" viewBox="0 0 28 12" fill="none" xmlns="http://www.w3.org/2000/svg">
<path fill-rule="evenodd" clip-rule="evenodd" d="M6 2C3.79086 2 2 3.79086 2 6C2 8.20914 3.79086 10 6 10C8.20914 10 10 8.20914 10 6C10 3.79086 8.20914 2 6 2ZM0 6C0 2.68629 2.68629 0 6 0C8.44234 0 10.5438 1.45927 11.4802 3.55347C12.2467 3.19832 13.1008 3 14 3C14.8992 3 15.7533 3.19832 16.5198 3.55347C17.4562 1.45927 19.5577 0 22 0C25.3137 0 28 2.68629 28 6C28 9.31371 25.3137 12 22 12C18.6863 12 16 9.31371 16 6C16 5.84687 16.0057 5.69507 16.017 5.54482C15.4252 5.19837 14.7367 5 14 5C13.2633 5 12.5748 5.19837 11.983 5.54482C11.9943 5.69507 12 5.84687 12 6C12 9.31371 9.31371 12 6 12C2.68629 12 0 9.31371 0 6ZM22 2C19.7909 2 18 3.79086 18 6C18 8.20914 19.7909 10 22 10C24.2091 10 26 8.20914 26 6C26 3.79086 24.2091 2 22 2Z" fill="#54688F"/>
</svg>
