<svg width="32" height="32" viewBox="0 0 32 32" fill="none" xmlns="http://www.w3.org/2000/svg">
<path fill-rule="evenodd" clip-rule="evenodd" d="M16 32C24.8366 32 32 24.8366 32 16C32 7.16344 24.8366 0 16 0C7.16344 0 0 7.16344 0 16C0 24.8366 7.16344 32 16 32ZM16.5297 22.7538H15.2745C15.2745 22.7538 12.5048 22.9209 10.0659 20.3774C7.406 17.6032 5.05687 12.0981 5.05687 12.0981C5.05687 12.0981 4.92145 11.7372 5.06855 11.5627C5.23391 11.3665 5.68435 11.3539 5.68435 11.3539L8.68492 11.3342C8.68492 11.3342 8.96772 11.3816 9.17014 11.5304C9.33692 11.6532 9.43042 11.8828 9.43042 11.8828C9.43042 11.8828 9.91536 13.1113 10.5577 14.2227C11.8112 16.3924 12.3951 16.867 12.8207 16.6345C13.4408 16.2956 13.2549 13.5673 13.2549 13.5673C13.2549 13.5673 13.2663 12.577 12.9427 12.1361C12.6921 11.7943 12.2195 11.6946 12.0108 11.6666C11.842 11.6441 12.1191 11.2514 12.4783 11.0752C13.0183 10.8102 13.9719 10.7951 15.0986 10.8068C15.9764 10.8157 16.229 10.8705 16.5722 10.9536C17.3686 11.1462 17.3437 11.7633 17.2901 13.0949C17.2741 13.4928 17.2556 13.9545 17.2556 14.4877C17.2556 14.6077 17.2521 14.7355 17.2485 14.8671C17.2299 15.5491 17.2086 16.3298 17.6567 16.62C17.8865 16.7685 18.4487 16.6423 19.8547 14.2507C20.5213 13.1173 21.021 11.7846 21.021 11.7846C21.021 11.7846 21.1302 11.547 21.2998 11.445C21.4735 11.3411 21.7075 11.3731 21.7075 11.3731L24.8652 11.3534C24.8652 11.3534 25.8139 11.24 25.9676 11.6689C26.1287 12.1192 25.613 13.1707 24.3229 14.8929C23.0977 16.5286 22.5024 17.1297 22.5585 17.6622C22.5994 18.0503 22.9863 18.402 23.7277 19.0912C25.282 20.5364 25.6962 21.2951 25.7947 21.4755C25.8026 21.4901 25.8085 21.5009 25.8128 21.5079C26.5084 22.6633 25.0414 22.7538 25.0414 22.7538L22.2369 22.793C22.2369 22.793 21.6343 22.9126 20.8411 22.3669C20.4264 22.0818 20.0208 21.6161 19.6345 21.1724C19.0439 20.4942 18.498 19.8674 18.0321 20.0153C17.2504 20.2637 17.2749 21.9508 17.2749 21.9508C17.2749 21.9508 17.2806 22.3112 17.1025 22.5031C16.9089 22.7121 16.5297 22.7538 16.5297 22.7538Z" fill="#54688F" fill-opacity="0.64"/>
</svg>
