<svg width="40" height="40" viewBox="0 0 40 40" fill="none" xmlns="http://www.w3.org/2000/svg">
<g opacity="0.5">
<path fill-rule="evenodd" clip-rule="evenodd" d="M17.5 4.58325C17.5 3.19992 18.6167 2.08325 20 2.08325C21.3833 2.08325 22.5 3.19992 22.5 4.58325V6.53325C27.7333 7.66659 31.6667 12.3333 31.6667 17.9166V27.9166L35 31.2499V32.9166H5V31.2499L8.33333 27.9166V17.9166C8.33333 12.3333 12.2667 7.66659 17.5 6.53325V4.58325ZM20.0013 9.58325C24.6013 9.58325 28.3346 13.3166 28.3346 17.9166V29.5833H11.668V17.9166C11.668 13.3166 15.4013 9.58325 20.0013 9.58325ZM16.6836 34.5999C16.6836 36.4332 18.1669 37.9165 20.0003 37.9165C21.8336 37.9165 23.3169 36.4332 23.3169 34.5999H16.6836ZM18.332 12.9167H21.6654V19.5834H18.332V12.9167ZM21.6654 22.9167H18.332V26.2501H21.6654V22.9167Z" fill="white"/>
</g>
</svg>
