<svg width="25" height="31" viewBox="0 0 25 31" fill="none" xmlns="http://www.w3.org/2000/svg">
<path opacity="0.7" fill-rule="evenodd" clip-rule="evenodd" d="M7.26744 3.2363H21.0271C21.5116 3.2363 21.8992 3.62389 21.8992 4.10839V25.62H23.4496V1.78281H5.71705V4.49599L6.68605 3.527C6.78295 3.3332 7.07364 3.2363 7.26744 3.2363ZM0.290698 9.92234L4.06977 6.14327V1.00762C4.06977 0.52312 4.45736 0.232422 4.84496 0.232422H24.2248C24.7093 0.232422 25 0.52312 25 1.00762V26.3952C25 26.8797 24.7093 27.1704 24.2248 27.1704H21.8992V29.6898C21.8992 30.1743 21.5116 30.465 21.0271 30.465H0.872093C0.387597 30.465 0 30.1743 0 29.6898V10.5037C0 10.3099 0.0968992 10.1161 0.290698 9.92234ZM8.46251 4.88358V10.9881C8.46251 11.4341 8.10101 11.7956 7.65508 11.7956H1.64729V28.9146H20.2519V4.88358H8.46251ZM2.33695 10.1807L6.84764 5.67001V10.1807H2.33695ZM16.1821 16.8019C16.5697 16.8019 16.9573 16.5112 16.9573 16.0267C16.9573 15.5422 16.5697 15.2515 16.1821 15.2515H5.71701C5.32941 15.2515 4.94181 15.5422 4.94181 16.0267C4.94181 16.5112 5.32941 16.8019 5.71701 16.8019H16.1821ZM16.9573 20.3875C16.9573 20.872 16.5697 21.2596 16.1821 21.2596H5.71701C5.32941 21.2596 4.94181 20.872 4.94181 20.3875C4.94181 19.9999 5.32941 19.6123 5.71701 19.6123H16.1821C16.5697 19.6123 16.9573 19.9999 16.9573 20.3875ZM16.1821 25.5231C16.5697 25.5231 16.9573 25.1355 16.9573 24.651C16.9573 24.2634 16.5697 23.8758 16.1821 23.8758H5.71701C5.32941 23.8758 4.94181 24.2634 4.94181 24.651C4.94181 25.1355 5.32941 25.5231 5.71701 25.5231H16.1821ZM16.9574 11.2791C16.9574 11.6667 16.5698 12.0543 16.1822 12.0543H13.1784C12.7908 12.0543 12.4032 11.6667 12.4032 11.2791C12.4032 10.7946 12.7908 10.407 13.1784 10.407H16.1822C16.5698 10.407 16.9574 10.7946 16.9574 11.2791Z" fill="#246AF1"/>
</svg>
