<svg width="40" height="40" viewBox="0 0 40 40" fill="none" xmlns="http://www.w3.org/2000/svg">
<g opacity="0.5">
<path fill-rule="evenodd" clip-rule="evenodd" d="M8.00114 8H32.0011C33.4678 8 34.6678 9.2 34.6678 10.6667V29.3333C34.6678 30.8 33.4678 32 32.0011 32H22.6678V29.3333H32.0011V10.6667H8.00114V14.6667H5.33447V10.6667C5.33447 9.2 6.53447 8 8.00114 8ZM5.33447 32V28C7.54781 28 9.33447 29.7867 9.33447 32H5.33447ZM5.33447 22.6666V25.3333C9.01447 25.3333 12.0011 28.3199 12.0011 31.9999H14.6678C14.6678 26.8399 10.4945 22.6666 5.33447 22.6666ZM5.33447 20.0001V17.3334C13.4278 17.3334 20.0011 23.8934 20.0011 32.0001H17.3345C17.3345 25.3734 11.9611 20.0001 5.33447 20.0001ZM18.6688 18.7867V21.4534L23.3355 24.0001L28.0022 21.4534V18.7867L23.3355 21.3334L18.6688 18.7867ZM16.0001 16L23.3334 12L30.6668 16L23.3334 20L16.0001 16Z" fill="white"/>
</g>
</svg>
