<svg width="30" height="36" viewBox="0 0 30 36" fill="none" xmlns="http://www.w3.org/2000/svg">
<path fill-rule="evenodd" clip-rule="evenodd" d="M12.5 2.58325C12.5 1.19992 13.6167 0.083252 15 0.083252C16.3833 0.083252 17.5 1.19992 17.5 2.58325V4.53325C22.7333 5.66659 26.6667 10.3333 26.6667 15.9166V25.9166L30 29.2499V30.9166H0V29.2499L3.33333 25.9166V15.9166C3.33333 10.3333 7.26667 5.66659 12.5 4.53325V2.58325ZM15.0013 7.58325C19.6013 7.58325 23.3346 11.3166 23.3346 15.9166V27.5833H6.66797V15.9166C6.66797 11.3166 10.4013 7.58325 15.0013 7.58325ZM11.6836 32.5999C11.6836 34.4332 13.1669 35.9165 15.0003 35.9165C16.8336 35.9165 18.3169 34.4332 18.3169 32.5999H11.6836ZM13.332 10.9167H16.6654V17.5834H13.332V10.9167ZM16.6654 20.9167H13.332V24.2501H16.6654V20.9167Z" fill="white"/>
</svg>
