<svg width="30" height="36" viewBox="0 0 30 36" fill="none" xmlns="http://www.w3.org/2000/svg">
<path fill-rule="evenodd" clip-rule="evenodd" 
d="M12.5 2.5C12.5 1.11667 13.6167 0 15 0C16.3833 0 17.5 1.11667 
17.5 2.5V4.45C22.7333 5.58333 26.6667 10.25 26.6667 15.8333V25.8333L30
 29.1667V30.8333H0V29.1667L3.33333 25.8333V15.8333C3.33333 10.25 7.26667 5.58333 12.5 4.45V2.5ZM15.0013 7.5C19.6013 7.5 23.3346 11.2333 23.3346 15.8333V27.5H6.66797V15.8333C6.66797 11.2333 10.4013 7.5 15.0013 7.5ZM11.6836 32.5166C11.6836 34.3499 13.1669 35.8333 15.0003 35.8333C16.8336 35.8333 18.3169 34.3499 18.3169 32.5166H11.6836ZM13.332 10.8335H16.6654V17.5002H13.332V10.8335ZM16.6654 20.8335H13.332V24.1668H16.6654V20.8335Z" fill="rgba(255, 255, 255, 0.5)"/>
</svg>
