<svg width="21" height="20" viewBox="0 0 21 20" fill="none" xmlns="http://www.w3.org/2000/svg">
<path fill-rule="evenodd" clip-rule="evenodd" d="M10.0126 10.4856C9.3357 9.80803 8.7763 9.07587 8.4794 8.48272C8.382 8.28796 8.3214 8.12458 8.2947 8.00779L8.8951 7.40702C9.0268 7.27519 9.0902 7.21101 9.172 7.125C9.3454 6.94279 9.4899 6.77628 9.6171 6.60491C10.1892 5.83399 10.4018 4.99475 9.7246 4.23904C8.4424 2.44548 7.57981 1.33615 7.02679 0.789877C5.88571 -0.337274 4.02665 -0.186275 3.03706 0.788765C2.55922 1.25957 2.3968 1.42191 1.90615 1.92025C-0.959289 4.78708 0.74966 10.7138 5.26507 15.2335C9.7797 19.7523 15.7069 21.4624 18.58 18.5879C19.031 18.1532 19.4164 17.7676 19.7213 17.4453C20.6868 16.4249 20.8325 14.6459 19.714 13.4838C19.1821 12.9311 18.1243 12.1103 16.2535 10.7718C15.5691 10.1652 14.7687 10.2968 14.0576 10.7633C13.7373 10.9734 13.5119 11.1789 13.0876 11.6037L12.4878 12.2038C12.3711 12.1772 12.208 12.1166 12.0135 12.0192C11.4206 11.7223 10.6891 11.1627 10.0126 10.4856ZM14.11 14.1156L14.855 13.3702C14.9822 13.2429 15.0829 13.1446 15.1661 13.0675C16.6745 14.1549 17.5573 14.8464 17.9138 15.2168C18.035 15.3428 18.0126 15.6153 17.9064 15.7276C17.6307 16.019 17.2711 16.3788 16.8291 16.8051C15.1982 18.4366 10.7013 17.1392 7.03264 13.4671C3.3626 9.79363 2.06559 5.2955 3.67995 3.68032C4.16806 3.18461 4.32158 3.03118 4.79066 2.569C4.86514 2.49562 5.1725 2.47065 5.27093 2.56789C5.65598 2.94823 6.37695 3.86714 7.43076 5.32866C7.40913 5.35222 7.3862 5.37673 7.36194 5.40222C7.29857 5.46882 7.24517 5.52295 7.12758 5.64065L6.38305 6.38556C4.94954 7.81889 6.0871 10.092 8.2451 12.252C10.4018 14.4107 12.6765 15.5498 14.11 14.1156Z" fill="#54688F"/>
</svg>
