<svg width="21" height="21" viewBox="0 0 21 21" fill="none" xmlns="http://www.w3.org/2000/svg">
<path fill-rule="evenodd" clip-rule="evenodd" d="M14.1014 13.291H15.0048L20.7109 19.0086L19.0071 20.7124L13.2896 15.0063V14.1029L12.9808 13.7827C11.6772 14.9034 9.98481 15.578 8.14376 15.578C4.03855 15.578 0.710938 12.2504 0.710938 8.14522C0.710938 4.04002 4.03855 0.712402 8.14376 0.712402C12.249 0.712402 15.5766 4.04002 15.5766 8.14522C15.5766 9.98627 14.9019 11.6787 13.7813 12.9823L14.1014 13.291ZM3 8.145C3 10.9923 5.29846 13.2908 8.1458 13.2908C10.9931 13.2908 13.2916 10.9923 13.2916 8.145C13.2916 5.29766 10.9931 2.9992 8.1458 2.9992C5.29846 2.9992 3 5.29766 3 8.145Z" fill="#54688F"/>
</svg>
