<svg width="16" height="13" viewBox="0 0 16 13" fill="none" xmlns="http://www.w3.org/2000/svg">
<g opacity="0.64">
<path d="M0.365173 7.353C0.608622 7.59105 0.901663 7.71007 1.24429 7.71007L11.7802 7.71007L8.48014 10.9369C8.2457 11.175 8.12398 11.4615 8.11496 11.7965C8.12398 12.1316 8.2457 12.4137 8.48014 12.6429C8.72358 12.881 9.01662 13 9.35926 13C9.70189 13 9.99042 12.881 10.2249 12.6429L15.5943 7.37945C15.6123 7.37063 15.6258 7.36182 15.6348 7.353C15.8783 7.12377 16 6.84164 16 6.50661C16 6.17158 15.8783 5.88505 15.6348 5.647L10.2249 0.357072C9.99042 0.127842 9.70189 0.00881714 9.35926 5.88445e-07C9.01662 0.00881713 8.72358 0.127842 8.48014 0.357072C8.2457 0.595119 8.12398 0.881656 8.11496 1.21669C8.12398 1.55171 8.2457 1.83384 8.48014 2.06307L11.7802 5.28993L1.24429 5.28993C0.901663 5.29875 0.608622 5.41777 0.365173 5.647C0.130741 5.88505 0.00901671 6.17158 7.74329e-08 6.50661C0.0090167 6.84164 0.130741 7.12377 0.365173 7.353Z" fill="#1389D3"/>
<path d="M0.365173 7.353C0.608622 7.59105 0.901663 7.71007 1.24429 7.71007L11.7802 7.71007L8.48014 10.9369C8.2457 11.175 8.12398 11.4615 8.11496 11.7965C8.12398 12.1316 8.2457 12.4137 8.48014 12.6429C8.72358 12.881 9.01662 13 9.35926 13C9.70189 13 9.99042 12.881 10.2249 12.6429L15.5943 7.37945C15.6123 7.37063 15.6258 7.36182 15.6348 7.353C15.8783 7.12377 16 6.84164 16 6.50661C16 6.17158 15.8783 5.88505 15.6348 5.647L10.2249 0.357072C9.99042 0.127842 9.70189 0.00881714 9.35926 5.88445e-07C9.01662 0.00881713 8.72358 0.127842 8.48014 0.357072C8.2457 0.595119 8.12398 0.881656 8.11496 1.21669C8.12398 1.55171 8.2457 1.83384 8.48014 2.06307L11.7802 5.28993L1.24429 5.28993C0.901663 5.29875 0.608622 5.41777 0.365173 5.647C0.130741 5.88505 0.00901671 6.17158 7.74329e-08 6.50661C0.0090167 6.84164 0.130741 7.12377 0.365173 7.353Z" fill="#246AF1"/>
</g>
</svg>
